<?xml version="1.0" encoding="UTF-8" standalone="no"?>
<!-- Created with Inkscape (http://www.inkscape.org/) -->

<svg
   width="32"
   height="32"
   viewBox="0 0 32 32"
   version="1.1"
   id="svg1"
   inkscape:version="1.3.2 (091e20e, 2023-11-25, custom)"
   sodipodi:docname="DiceSmall6.svg"
   xmlns:inkscape="http://www.inkscape.org/namespaces/inkscape"
   xmlns:sodipodi="http://sodipodi.sourceforge.net/DTD/sodipodi-0.dtd"
   xmlns="http://www.w3.org/2000/svg"
   xmlns:svg="http://www.w3.org/2000/svg">
  <sodipodi:namedview
     id="namedview1"
     pagecolor="#ffffff"
     bordercolor="#666666"
     borderopacity="1.0"
     inkscape:showpageshadow="2"
     inkscape:pageopacity="0.0"
     inkscape:pagecheckerboard="true"
     inkscape:deskcolor="#d1d1d1"
     inkscape:document-units="mm"
     inkscape:zoom="16"
     inkscape:cx="6.78125"
     inkscape:cy="30.75"
     inkscape:window-width="2183"
     inkscape:window-height="1396"
     inkscape:window-x="916"
     inkscape:window-y="2165"
     inkscape:window-maximized="0"
     inkscape:current-layer="layer1" />
  <defs
     id="defs1" />
  <g
     inkscape:label="Layer 1"
     inkscape:groupmode="layer"
     id="layer1">
    <path
       style="color:#000000;fill:#000000;-inkscape-stroke:none"
       d="M 7,0 C 3.1393011,0 0,3.1393011 0,7 v 18 c 0,3.860699 3.1393011,7 7,7 h 18 c 3.860699,0 7,-3.139301 7,-7 V 7 C 32,3.1393011 28.860699,0 25,0 Z m 0,2 h 18 c 2.787294,0 5,2.2127056 5,5 v 18 c 0,2.787294 -2.212706,5 -5,5 H 7 C 4.2127056,30 2,27.787294 2,25 V 7 C 2,4.2127056 4.2127056,2 7,2 Z"
       id="rect1" />
    <path
       id="path1"
       style="stroke-width:3.99998"
       d="M 14,8 A 3,3 0 0 1 11,11 3,3 0 0 1 8,8 3,3 0 0 1 11,5 3,3 0 0 1 14,8 Z" />
    <path
       id="circle5"
       style="stroke-width:3.99998"
       d="m 14,16 a 3,3 0 0 1 -3,3 3,3 0 0 1 -3,-3 3,3 0 0 1 3,-3 3,3 0 0 1 3,3 z" />
    <path
       id="circle6"
       style="stroke-width:3.99998"
       d="m 14,24 a 3,3 0 0 1 -3,3 3,3 0 0 1 -3,-3 3,3 0 0 1 3,-3 3,3 0 0 1 3,3 z" />
    <path
       id="circle7"
       style="stroke-width:3.99998"
       d="m 24,24 a 3,3 0 0 1 -3,3 3,3 0 0 1 -3,-3 3,3 0 0 1 3,-3 3,3 0 0 1 3,3 z" />
    <path
       id="circle8"
       style="stroke-width:3.99998"
       d="m 24,16 a 3,3 0 0 1 -3,3 3,3 0 0 1 -3,-3 3,3 0 0 1 3,-3 3,3 0 0 1 3,3 z" />
    <path
       id="circle9"
       style="stroke-width:3.99998"
       d="m 24,8 a 3,3 0 0 1 -3,3 3,3 0 0 1 -3,-3 3,3 0 0 1 3,-3 3,3 0 0 1 3,3 z" />
  </g>
</svg>
