<?xml version="1.0" encoding="UTF-8" standalone="no"?>
<!-- Created with Inkscape (http://www.inkscape.org/) -->

<svg
   width="32"
   height="32"
   viewBox="0 0 32 32"
   version="1.1"
   id="svg1"
   inkscape:version="1.3.2 (091e20e, 2023-11-25, custom)"
   sodipodi:docname="Password.svg"
   xmlns:inkscape="http://www.inkscape.org/namespaces/inkscape"
   xmlns:sodipodi="http://sodipodi.sourceforge.net/DTD/sodipodi-0.dtd"
   xmlns="http://www.w3.org/2000/svg"
   xmlns:svg="http://www.w3.org/2000/svg">
  <sodipodi:namedview
     id="namedview1"
     pagecolor="#ffffff"
     bordercolor="#666666"
     borderopacity="1.0"
     inkscape:showpageshadow="2"
     inkscape:pageopacity="0.0"
     inkscape:pagecheckerboard="true"
     inkscape:deskcolor="#d1d1d1"
     inkscape:document-units="px"
     inkscape:zoom="45.254834"
     inkscape:cx="9.1260969"
     inkscape:cy="15.998291"
     inkscape:window-width="3840"
     inkscape:window-height="2050"
     inkscape:window-x="-12"
     inkscape:window-y="1878"
     inkscape:window-maximized="1"
     inkscape:current-layer="layer1" />
  <defs
     id="defs1" />
  <g
     inkscape:label="Layer 1"
     inkscape:groupmode="layer"
     id="layer1">
    <path
       style="color:#000000;fill:#000000;-inkscape-stroke:none"
       d="m 7,9 c -3.8606989,0 -7,3.139301 -7,7 0,3.860699 3.1393011,7 7,7 h 18 c 3.860699,0 7,-3.139301 7,-7 0,-3.860699 -3.139301,-7 -7,-7 z m 0,2 h 18 c 2.787294,0 5,2.212706 5,5 0,2.787294 -2.212706,5 -5,5 H 7 C 4.2127056,21 2,18.787294 2,16 2,13.212706 4.2127056,11 7,11 Z"
       id="rect1" />
    <path
       style="color:#000000;fill:#000000;-inkscape-stroke:none"
       d="m 6.5,12 v 3.132813 l -2.7148437,-1.566407 -0.5,0.867188 L 5.9980469,16 l -2.7128906,1.566406 0.5,0.867188 L 6.5,16.867187 V 20 h 1 v -3.132813 l 2.714844,1.566407 0.5,-0.867188 L 8.0019531,16 l 2.7128909,-1.566406 -0.5,-0.867188 L 7.5,15.132813 V 12 Z"
       id="path5" />
    <path
       style="color:#000000;fill:#000000;-inkscape-stroke:none"
       d="m 15.5,12 v 3.132813 l -2.714844,-1.566407 -0.5,0.867188 L 14.998047,16 l -2.712891,1.566406 0.5,0.867188 L 15.5,16.867187 V 20 h 1 v -3.132813 l 2.714844,1.566407 0.5,-0.867188 L 17.001953,16 l 2.712891,-1.566406 -0.5,-0.867188 L 16.5,15.132813 V 12 Z"
       id="path7" />
    <path
       style="color:#000000;fill:#000000;-inkscape-stroke:none"
       d="m 24.5,12 v 3.132813 l -2.714844,-1.566407 -0.5,0.867188 L 23.998047,16 l -2.712891,1.566406 0.5,0.867188 L 24.5,16.867187 V 20 h 1 v -3.132813 l 2.714844,1.566407 0.5,-0.867188 L 26.001953,16 l 2.712891,-1.566406 -0.5,-0.867188 L 25.5,15.132813 V 12 Z"
       id="path8" />
  </g>
</svg>
